# Wavefront OBJ exported by MilkShape 3D

mtllib boar.mtl

v 2.400000 0.000000 0.000000
v 3.000000 1.000000 0.000000
v 3.000000 13.000000 0.000000
v 2.400000 14.000000 0.000000
v 2.160000 13.700001 0.000000
v 1.941641 0.000000 1.410685
v 2.427051 1.000000 1.763356
v 2.427051 13.000000 1.763356
v 1.941641 14.000000 1.410685
v 1.747477 13.700001 1.269617
v 0.741641 0.000000 2.282536
v 0.927051 1.000000 2.853169
v 0.927051 13.000000 2.853169
v 0.741641 14.000000 2.282536
v 0.667477 13.700001 2.054282
v -0.741641 0.000000 2.282536
v -0.927051 1.000000 2.853169
v -0.927051 13.000000 2.853169
v -0.741641 14.000000 2.282536
v -0.667477 13.700001 2.054282
v -1.941641 0.000000 1.410685
v -2.427051 1.000000 1.763356
v -2.427051 13.000000 1.763356
v -1.941641 14.000000 1.410685
v -1.747477 13.700001 1.269617
v -2.400000 0.000000 0.000000
v -3.000000 1.000000 0.000000
v -3.000000 13.000000 0.000000
v -2.400000 14.000000 0.000000
v -2.160000 13.700001 0.000000
v -1.941641 0.000000 -1.410684
v -2.427051 1.000000 -1.763355
v -2.427051 13.000000 -1.763355
v -1.941641 14.000000 -1.410684
v -1.747477 13.700001 -1.269615
v -0.741641 0.000000 -2.282536
v -0.927051 1.000000 -2.853169
v -0.927051 13.000000 -2.853169
v -0.741641 14.000000 -2.282536
v -0.667477 13.700001 -2.054282
v 0.741641 0.000000 -2.282536
v 0.927051 1.000000 -2.853169
v 0.927051 13.000000 -2.853169
v 0.741641 14.000000 -2.282536
v 0.667477 13.700001 -2.054282
v 1.941641 0.000000 -1.410684
v 2.427051 1.000000 -1.763355
v 2.427051 13.000000 -1.763355
v 1.941641 14.000000 -1.410684
v 1.747477 13.700001 -1.269615
v -0.000000 13.700001 0.000000
v 0.000000 1.000000 0.000000
# 52 vertices

vt 0.949219 0.992188
vt 0.912223 0.872468
vt 0.755509 0.992188
vt 0.489438 0.990964
vt 0.280661 0.990964
vt 0.449565 0.875485
vt 1.000000 0.000000
vt 1.000000 0.049121
vt 0.900000 0.049121
vt 0.900000 0.000000
vt 1.000000 0.722972
vt 0.900000 0.722972
vt 1.000000 0.769822
vt 0.900000 0.769822
vt 1.000000 0.727741
vt 0.900000 0.727741
vt 0.815368 0.798477
vt 0.345177 0.804114
vt 0.800000 0.000000
vt 0.800000 0.049121
vt 0.800000 0.722972
vt 0.800000 0.769822
vt 0.800000 0.727741
vt 0.695649 0.798477
vt 0.216145 0.804114
vt 0.700000 0.049121
vt 0.700000 0.000000
vt 0.700000 0.722972
vt 0.700000 0.769822
vt 0.700000 0.727741
vt 0.598794 0.872468
vt 0.111756 0.875485
vt 0.600000 0.000000
vt 0.600000 0.049121
vt 0.600000 0.722972
vt 0.600000 0.769822
vt 0.600000 0.727741
vt 0.561798 0.992188
vt 0.071884 0.990964
vt 0.500000 0.049121
vt 0.500000 0.000000
vt 0.500000 0.722972
vt 0.500000 0.769822
vt 0.500000 0.727741
vt 0.400000 0.000000
vt 0.400000 0.049121
vt 0.400000 0.722972
vt 0.400000 0.769822
vt 0.400000 0.727741
vt 0.300000 0.049121
vt 0.300000 0.000000
vt 0.300000 0.722972
vt 0.300000 0.769822
vt 0.300000 0.727741
vt 0.200000 0.000000
vt 0.200000 0.049121
vt 0.200000 0.722972
vt 0.200000 0.769822
vt 0.200000 0.727741
vt 0.100000 0.049121
vt 0.100000 0.000000
vt 0.100000 0.722972
vt 0.100000 0.769822
vt 0.100000 0.727741
vt 0.000000 0.000000
vt 0.000000 0.049121
vt 0.000000 0.722972
vt 0.000000 0.769822
vt 0.000000 0.727741
# 69 texture coordinates

vn -0.384615 -0.923077 0.000000
vn -0.311160 -0.923077 -0.226071
vn -0.000000 -1.000000 -0.000000
vn 0.000000 1.000000 0.000000
vn 0.857493 -0.514496 -0.000000
vn 0.963240 -0.268642 -0.000000
vn 0.779278 -0.268642 0.566178
vn 0.693726 -0.514496 0.504022
vn 0.963240 0.268642 -0.000000
vn 0.779278 0.268642 0.566178
vn 0.062671 0.998034 0.000000
vn 0.050702 0.998034 0.036837
vn -0.780868 0.624696 0.000000
vn -0.631735 0.624696 -0.458983
vn -0.118853 -0.923077 -0.365791
vn 0.264980 -0.514496 0.815524
vn 0.297658 -0.268642 0.916096
vn 0.297658 0.268642 0.916096
vn 0.019366 0.998034 0.059603
vn -0.241301 0.624696 -0.742650
vn 0.118853 -0.923077 -0.365791
vn -0.297658 -0.268642 0.916096
vn -0.264980 -0.514496 0.815524
vn -0.297658 0.268642 0.916096
vn -0.019366 0.998034 0.059603
vn 0.241301 0.624696 -0.742650
vn 0.311160 -0.923077 -0.226071
vn -0.693726 -0.514496 0.504022
vn -0.779278 -0.268642 0.566178
vn -0.779278 0.268642 0.566178
vn -0.050702 0.998034 0.036837
vn 0.631735 0.624696 -0.458983
vn 0.384615 -0.923077 0.000000
vn -0.963240 -0.268642 -0.000000
vn -0.857493 -0.514496 -0.000000
vn -0.963240 0.268642 -0.000000
vn -0.062671 0.998034 0.000000
vn 0.780868 0.624696 0.000000
vn 0.311160 -0.923077 0.226071
vn -0.693726 -0.514496 -0.504022
vn -0.779278 -0.268642 -0.566178
vn -0.779278 0.268642 -0.566178
vn -0.050702 0.998034 -0.036837
vn 0.631736 0.624696 0.458983
vn 0.118853 -0.923077 0.365791
vn -0.297658 -0.268642 -0.916096
vn -0.264980 -0.514496 -0.815524
vn -0.297658 0.268642 -0.916096
vn -0.019366 0.998034 -0.059603
vn 0.241302 0.624696 0.742650
vn -0.118853 -0.923077 0.365791
vn 0.264980 -0.514496 -0.815524
vn 0.297658 -0.268642 -0.916096
vn 0.297658 0.268642 -0.916096
vn 0.019366 0.998034 -0.059603
vn -0.241302 0.624696 0.742650
vn -0.311160 -0.923077 0.226071
vn 0.779278 -0.268642 -0.566178
vn 0.693726 -0.514496 -0.504022
vn 0.779278 0.268642 -0.566178
vn 0.050702 0.998034 -0.036837
vn -0.631736 0.624696 0.458983
# 62 normals

g Boar
usemtl Material02
s 2
f 1/1/1 6/2/2 52/3/3
f 5/4/4 51/5/4 10/6/4
s 1
f 1/7/5 2/8/6 7/9/7
f 1/7/5 7/9/7 6/10/8
f 2/8/6 3/11/9 7/9/7
f 3/11/9 8/12/10 7/9/7
f 3/11/9 4/13/11 9/14/12
f 3/11/9 9/14/12 8/12/10
f 4/13/11 5/15/13 9/14/12
f 5/15/13 10/16/14 9/14/12
s 2
f 6/2/2 11/17/15 52/3/3
f 10/6/4 51/5/4 15/18/4
s 1
f 6/10/8 7/9/7 11/19/16
f 7/9/7 12/20/17 11/19/16
f 7/9/7 8/12/10 13/21/18
f 7/9/7 13/21/18 12/20/17
f 8/12/10 9/14/12 13/21/18
f 9/14/12 14/22/19 13/21/18
f 9/14/12 10/16/14 15/23/20
f 9/14/12 15/23/20 14/22/19
s 2
f 11/17/15 16/24/21 52/3/3
f 15/18/4 51/5/4 20/25/4
s 1
f 11/19/16 12/20/17 17/26/22
f 11/19/16 17/26/22 16/27/23
f 12/20/17 13/21/18 17/26/22
f 13/21/18 18/28/24 17/26/22
f 13/21/18 14/22/19 19/29/25
f 13/21/18 19/29/25 18/28/24
f 14/22/19 15/23/20 19/29/25
f 15/23/20 20/30/26 19/29/25
s 2
f 16/24/21 21/31/27 52/3/3
f 20/25/4 51/5/4 25/32/4
s 1
f 16/27/23 17/26/22 21/33/28
f 17/26/22 22/34/29 21/33/28
f 17/26/22 18/28/24 23/35/30
f 17/26/22 23/35/30 22/34/29
f 18/28/24 19/29/25 23/35/30
f 19/29/25 24/36/31 23/35/30
f 19/29/25 20/30/26 25/37/32
f 19/29/25 25/37/32 24/36/31
s 2
f 21/31/27 26/38/33 52/3/3
f 25/32/4 51/5/4 30/39/4
s 1
f 21/33/28 22/34/29 27/40/34
f 21/33/28 27/40/34 26/41/35
f 22/34/29 23/35/30 27/40/34
f 23/35/30 28/42/36 27/40/34
f 23/35/30 24/36/31 29/43/37
f 23/35/30 29/43/37 28/42/36
f 24/36/31 25/37/32 29/43/37
f 25/37/32 30/44/38 29/43/37
s 2
f 26/38/33 31/31/39 52/3/3
f 30/39/4 51/5/4 35/32/4
s 1
f 26/41/35 27/40/34 31/45/40
f 27/40/34 32/46/41 31/45/40
f 27/40/34 28/42/36 33/47/42
f 27/40/34 33/47/42 32/46/41
f 28/42/36 29/43/37 33/47/42
f 29/43/37 34/48/43 33/47/42
f 29/43/37 30/44/38 35/49/44
f 29/43/37 35/49/44 34/48/43
s 2
f 31/31/39 36/24/45 52/3/3
f 35/32/4 51/5/4 40/25/4
s 1
f 31/45/40 32/46/41 37/50/46
f 31/45/40 37/50/46 36/51/47
f 32/46/41 33/47/42 37/50/46
f 33/47/42 38/52/48 37/50/46
f 33/47/42 34/48/43 39/53/49
f 33/47/42 39/53/49 38/52/48
f 34/48/43 35/49/44 39/53/49
f 35/49/44 40/54/50 39/53/49
s 2
f 36/24/45 41/17/51 52/3/3
f 40/25/4 51/5/4 45/18/4
s 1
f 36/51/47 37/50/46 41/55/52
f 37/50/46 42/56/53 41/55/52
f 37/50/46 38/52/48 43/57/54
f 37/50/46 43/57/54 42/56/53
f 38/52/48 39/53/49 43/57/54
f 39/53/49 44/58/55 43/57/54
f 39/53/49 40/54/50 45/59/56
f 39/53/49 45/59/56 44/58/55
s 2
f 41/17/51 46/2/57 52/3/3
f 45/18/4 51/5/4 50/6/4
s 1
f 41/55/52 42/56/53 47/60/58
f 41/55/52 47/60/58 46/61/59
f 42/56/53 43/57/54 47/60/58
f 43/57/54 48/62/60 47/60/58
f 43/57/54 44/58/55 49/63/61
f 43/57/54 49/63/61 48/62/60
f 44/58/55 45/59/56 49/63/61
f 45/59/56 50/64/62 49/63/61
s 2
f 46/2/57 1/1/1 52/3/3
f 50/6/4 51/5/4 5/4/4
s 1
f 46/61/59 47/60/58 1/65/5
f 47/60/58 2/66/6 1/65/5
f 47/60/58 48/62/60 3/67/9
f 47/60/58 3/67/9 2/66/6
f 48/62/60 49/63/61 3/67/9
f 49/63/61 4/68/11 3/67/9
f 49/63/61 50/64/62 5/69/13
f 49/63/61 5/69/13 4/68/11
# 100 triangles in group

# 100 triangles total

