# Wavefront OBJ exported by MilkShape 3D

mtllib jerry can.mtl

v 5.248800 0.656100 10.497599
v 5.248798 0.656100 -9.841499
v 4.592700 0.000000 11.153699
v 4.592699 0.000000 -10.497599
v 5.248800 26.900095 10.497599
v 4.592700 27.556196 11.153699
v 5.248799 30.180595 3.936599
v 4.592700 30.836700 4.592700
v 5.248799 30.180595 -4.592700
v 4.592700 30.836700 -3.936600
v 5.248798 34.773296 -6.560999
v 4.592699 35.429398 -5.904899
v 5.248798 34.773296 -9.841499
v 4.592699 35.429398 -10.497599
v -5.248798 0.656100 10.497599
v -5.248800 0.656100 -9.841499
v -4.592699 0.000000 11.153699
v -4.592700 0.000000 -10.497599
v -5.248798 26.900095 10.497599
v -4.592699 27.556196 11.153699
v -5.248799 30.180595 3.936600
v -4.592700 30.836700 4.592700
v -5.248799 30.180595 -4.592700
v -4.592700 30.836700 -3.936599
v -5.248800 34.773296 -6.560999
v -4.592700 35.429398 -5.904899
v -5.248800 34.773296 -9.841499
v -4.592700 35.429398 -10.497599
v -1.640250 30.025167 3.936511
v -1.640250 32.998310 2.550120
v -1.640250 33.789146 1.312200
v -1.640250 33.789146 -5.904899
v -1.159831 29.735735 3.315817
v -1.159831 32.708870 1.929404
v -1.159832 33.104279 1.312200
v -1.159832 33.104279 -5.904899
v 0.000000 29.615833 3.058705
v 0.000000 32.588978 1.672300
v 0.000000 32.820595 1.312200
v -0.000001 32.820595 -5.904899
v 1.159832 29.735735 3.315817
v 1.159832 32.708870 1.929404
v 1.159832 33.104279 1.312200
v 1.159831 33.104279 -5.904899
v 1.640250 30.025167 3.936511
v 1.640250 32.998310 2.550120
v 1.640250 33.789146 1.312200
v 1.640249 33.789146 -5.904899
v 1.159832 30.314598 4.557220
v 1.159832 33.287743 3.170812
v 1.159832 34.474010 1.312200
v 1.159831 34.474010 -5.904899
v 0.000000 30.434490 4.814316
v 0.000000 33.407631 3.427917
v 0.000000 34.757694 1.312200
v -0.000001 34.757694 -5.904899
v -1.159831 30.314598 4.557220
v -1.159831 33.287743 3.170812
v -1.159832 34.474010 1.312200
v -1.159832 34.474010 -5.904899
v -1.098217 27.685377 10.902067
v -1.098217 29.397556 11.755729
v -2.651332 28.378374 9.512133
v -2.651332 30.090549 10.365792
v -2.651332 29.358421 7.546466
v -2.651331 31.070599 8.400126
v -1.098218 30.051418 6.156529
v -1.098218 31.763596 7.010189
v 1.098218 30.051418 6.156531
v 1.098219 31.763592 7.010190
v 2.651333 29.358421 7.546466
v 2.651333 31.070599 8.400126
v 2.651333 28.378374 9.512133
v 2.651333 30.090553 10.365792
v 1.098220 27.685377 10.902069
v 1.098220 29.397552 11.755731
v -2.036777 27.900961 11.347616
v -2.036777 28.911983 11.851693
v -2.953876 28.310171 10.526874
v -2.953876 29.321190 11.030949
v 2.036778 30.536989 6.060566
v 2.036778 31.548006 6.564642
v 2.953875 30.127783 6.881308
v 2.953875 31.138800 7.385384
v -2.953873 30.127783 6.881311
v -2.953873 31.138800 7.385386
v -2.036776 30.536989 6.060566
v -2.036776 31.548006 6.564642
v 2.953877 28.310171 10.526874
v 2.953877 29.321190 11.030951
v 2.036778 27.900961 11.347617
v 2.036778 28.911982 11.851695
# 92 vertices

vt 0.507660 0.013672
vt 0.522154 0.027172
vt 0.522154 0.567172
vt 0.507660 0.580672
vt 0.667093 0.634672
vt 0.652599 0.648172
vt 0.855512 0.634672
vt 0.841019 0.648172
vt 0.898994 0.729172
vt 0.884500 0.742672
vt 0.971463 0.729172
vt 0.985957 0.742672
vt 0.971463 0.027172
vt 0.985957 0.013672
vt 0.437163 0.014701
vt 0.231272 0.014701
vt 0.437163 0.581701
vt 0.231272 0.581701
vt 0.831669 0.813204
vt 0.831669 0.993251
vt 0.627566 0.813204
vt 0.627566 0.993251
vt 0.385621 0.813204
vt 0.385621 0.993251
vt 0.285404 0.813204
vt 0.285404 0.993251
vt 0.155127 0.813204
vt 0.155127 0.993251
vt 0.010103 0.743701
vt 0.215994 0.743701
vt 0.010103 0.014701
vt 0.215994 0.014701
vt 0.842667 0.685642
vt 0.842667 0.795061
vt 0.528857 0.685642
vt 0.528857 0.795061
vt 0.227526 0.799528
vt 0.276807 0.799528
vt 0.227526 0.779241
vt 0.276807 0.779241
vt 0.326088 0.799528
vt 0.326088 0.779241
vt 0.477899 0.799528
vt 0.477899 0.779241
vt 0.276807 0.748168
vt 0.227526 0.748168
vt 0.326088 0.748168
vt 0.477899 0.748168
vt 0.227526 0.717096
vt 0.276807 0.717096
vt 0.326088 0.717096
vt 0.477899 0.717096
vt 0.276807 0.696809
vt 0.227526 0.696809
vt 0.326088 0.696809
vt 0.477899 0.696809
vt 0.227526 0.676521
vt 0.276807 0.676521
vt 0.326088 0.676521
vt 0.477899 0.676521
vt 0.276807 0.645448
vt 0.227526 0.645448
vt 0.326088 0.645448
vt 0.477899 0.645448
vt 0.227526 0.614376
vt 0.276807 0.614376
vt 0.326088 0.614376
vt 0.477899 0.614376
vt 0.276807 0.594088
vt 0.227526 0.594088
vt 0.326088 0.594088
vt 0.477899 0.594088
vt 0.539872 0.676961
vt 0.560754 0.656380
vt 0.510342 0.676961
vt 0.560754 0.627275
vt 0.489461 0.656380
vt 0.539872 0.606695
vt 0.489461 0.627275
vt 0.510342 0.606695
vt 0.941088 0.754472
vt 0.941002 0.796544
vt 0.987993 0.796919
vt 0.988077 0.754847
vt 0.859744 0.755743
vt 0.859744 0.797239
vt 0.915559 0.797239
vt 0.915559 0.755743
vt 0.135812 0.763669
vt 0.136045 0.791198
vt 0.168046 0.762834
vt 0.168279 0.790363
vt 0.050596 0.762538
vt 0.050983 0.791915
vt 0.017857 0.762365
vt 0.018245 0.791741
vt 0.006594 0.802168
vt 0.062037 0.802462
vt 0.061381 0.752713
vt 0.005938 0.752418
vt 0.180251 0.799217
vt 0.125663 0.800632
vt 0.125269 0.754011
vt 0.179857 0.752596
# 104 texture coordinates

vn 0.485757 -0.390907 0.781813
vn 0.892074 -0.404182 0.202091
vn 0.922476 0.116955 0.367913
vn 0.478270 0.591535 0.649110
vn 0.918573 0.378483 0.113902
vn 0.412375 0.901260 0.132956
vn 0.948269 0.300852 0.101363
vn 0.480984 0.622052 0.617823
vn 0.896943 0.322105 0.302889
vn 0.456440 0.835888 0.304883
vn 0.933648 0.320377 -0.160189
vn 0.485757 0.390907 -0.781814
vn 0.968222 -0.111845 -0.223689
vn 0.485757 -0.781814 -0.390907
vn -0.922476 0.116955 0.367913
vn -0.892074 -0.404182 0.202091
vn -0.504835 -0.644242 0.574538
vn -0.483897 0.411185 0.772509
vn -0.918573 0.378483 0.113903
vn -0.413612 0.884258 0.216826
vn -0.948269 0.300851 0.101363
vn -0.487560 0.759135 0.431277
vn -0.896943 0.322105 0.302889
vn -0.466291 0.726037 0.505414
vn -0.933648 0.320377 -0.160189
vn -0.504835 0.644241 -0.574538
vn -0.968222 -0.111845 -0.223689
vn -0.504835 -0.574538 -0.644242
vn -1.000000 -0.000002 -0.000004
vn -0.564217 -0.348927 -0.748271
vn -0.555120 -0.551782 -0.622396
vn -0.555200 -0.796559 -0.239264
vn -0.564214 -0.825629 0.000000
vn -0.000000 -0.658949 -0.752187
vn 0.000000 -0.422619 -0.906307
vn 0.000000 -0.959094 -0.283089
vn 0.000000 -1.000000 -0.000000
vn 0.564217 -0.348927 -0.748271
vn 0.555120 -0.551782 -0.622397
vn 0.555200 -0.796559 -0.239264
vn 0.564214 -0.825629 -0.000000
vn 1.000000 0.000148 -0.000107
vn 0.564212 0.348927 0.748275
vn 0.555049 0.552379 0.621931
vn 0.555057 0.796884 0.238513
vn 0.564213 0.825629 -0.000000
vn 0.000000 0.659947 0.751312
vn 0.000000 0.422618 0.906308
vn 0.000000 0.959609 0.281338
vn 0.000000 1.000000 -0.000000
vn -0.564212 0.348927 0.748275
vn -0.555049 0.552379 0.621931
vn -0.555057 0.796884 0.238513
vn -0.564213 0.825629 0.000000
vn 0.000000 -0.894934 -0.446199
vn 0.000001 0.894936 0.446195
vn -0.886039 -0.440666 -0.144043
vn -0.956842 0.288512 0.034850
vn -0.925984 0.334398 0.175305
vn -0.807610 -0.483664 -0.337394
vn 0.075627 0.244781 -0.966624
vn 0.007678 0.750996 -0.660263
vn 0.067717 0.805800 -0.588303
vn -0.097544 0.181953 -0.978457
vn 0.886038 -0.380238 -0.265246
vn 0.956842 0.201464 0.209440
vn 0.925984 0.341252 0.161560
vn 0.807610 -0.560531 -0.183223
vn -0.075628 -0.624669 0.777219
vn -0.007681 -0.075348 0.997128
vn -0.067717 0.015104 0.997590
vn 0.097544 -0.671929 0.734164
vn -0.320530 -0.863653 0.389056
vn -0.280925 -0.204280 0.937737
vn -0.930363 -0.336193 0.146285
vn -0.733540 0.393331 0.554265
vn 0.320529 -0.209046 -0.923884
vn 0.280925 0.625971 -0.727489
vn 0.930363 -0.085497 -0.356533
vn 0.733540 0.679369 -0.019440
vn -0.946363 -0.211181 -0.244539
vn -0.846713 0.459352 -0.268462
vn -0.437276 -0.083494 -0.895443
vn -0.179427 0.818586 -0.545640
vn 0.946363 -0.322390 -0.021490
vn 0.846714 0.062042 0.528419
vn 0.437276 -0.765381 0.472209
vn 0.179425 0.056871 0.982126
# 88 normals

g jerry can
usemtl jerry can
s 1
f 3/1/1 1/2/2 5/3/3
f 5/3/3 6/4/4 3/1/1
f 6/4/4 5/3/3 7/5/5
f 7/5/5 8/6/6 6/4/4
f 8/6/6 7/5/5 9/7/7
f 9/7/7 10/8/8 8/6/6
f 9/7/7 11/9/9 10/8/8
f 10/8/8 11/9/9 12/10/10
f 12/10/10 11/9/9 13/11/11
f 13/11/11 14/12/12 12/10/10
f 14/12/12 13/11/11 2/13/13
f 2/13/13 4/14/14 14/12/12
f 4/14/14 2/13/13 1/2/2
f 1/2/2 3/1/1 4/14/14
f 13/11/11 11/9/9 9/7/7
f 9/7/7 2/13/13 13/11/11
f 2/13/13 9/7/7 7/5/5
f 7/5/5 5/3/3 2/13/13
f 2/13/13 5/3/3 1/2/2
f 19/3/15 15/2/16 17/1/17
f 17/1/17 20/4/18 19/3/15
f 21/5/19 19/3/15 20/4/18
f 20/4/18 22/6/20 21/5/19
f 23/7/21 21/5/19 22/6/20
f 22/6/20 24/8/22 23/7/21
f 24/8/22 25/9/23 23/7/21
f 26/10/24 25/9/23 24/8/22
f 27/11/25 25/9/23 26/10/24
f 26/10/24 28/12/26 27/11/25
f 16/13/27 27/11/25 28/12/26
f 28/12/26 18/14/28 16/13/27
f 15/2/16 16/13/27 18/14/28
f 18/14/28 17/1/17 15/2/16
f 23/7/21 25/9/23 27/11/25
f 27/11/25 16/13/27 23/7/21
f 21/5/19 23/7/21 16/13/27
f 16/13/27 19/3/15 21/5/19
f 15/2/16 19/3/15 16/13/27
f 17/15/17 3/16/1 20/17/18
f 20/17/18 3/16/1 6/18/4
f 20/19/18 6/20/4 22/21/20
f 22/21/20 6/20/4 8/22/6
f 22/21/20 8/22/6 24/23/22
f 24/23/22 8/22/6 10/24/8
f 24/23/22 10/24/8 26/25/24
f 26/25/24 10/24/8 12/26/10
f 26/25/24 12/26/10 28/27/26
f 28/27/26 12/26/10 14/28/12
f 28/29/26 14/30/12 18/31/28
f 18/31/28 14/30/12 4/32/14
f 18/33/28 4/34/14 17/35/17
f 17/35/17 4/34/14 3/36/1
f 29/37/29 30/38/29 33/39/30
f 30/38/29 34/40/31 33/39/30
f 30/38/29 31/41/29 35/42/32
f 30/38/29 35/42/32 34/40/31
f 31/41/29 32/43/29 35/42/32
f 32/43/29 36/44/33 35/42/32
f 33/39/30 34/40/31 38/45/34
f 33/39/30 38/45/34 37/46/35
f 34/40/31 35/42/32 38/45/34
f 35/42/32 39/47/36 38/45/34
f 35/42/32 36/44/33 40/48/37
f 35/42/32 40/48/37 39/47/36
f 37/46/35 38/45/34 41/49/38
f 38/45/34 42/50/39 41/49/38
f 38/45/34 39/47/36 43/51/40
f 38/45/34 43/51/40 42/50/39
f 39/47/36 40/48/37 43/51/40
f 40/48/37 44/52/41 43/51/40
f 41/49/38 42/50/39 46/53/42
f 41/49/38 46/53/42 45/54/42
f 42/50/39 43/51/40 46/53/42
f 43/51/40 47/55/42 46/53/42
f 43/51/40 44/52/41 48/56/42
f 43/51/40 48/56/42 47/55/42
f 45/54/42 46/53/42 49/57/43
f 46/53/42 50/58/44 49/57/43
f 46/53/42 47/55/42 51/59/45
f 46/53/42 51/59/45 50/58/44
f 47/55/42 48/56/42 51/59/45
f 48/56/42 52/60/46 51/59/45
f 49/57/43 50/58/44 54/61/47
f 49/57/43 54/61/47 53/62/48
f 50/58/44 51/59/45 54/61/47
f 51/59/45 55/63/49 54/61/47
f 51/59/45 52/60/46 56/64/50
f 51/59/45 56/64/50 55/63/49
f 53/62/48 54/61/47 57/65/51
f 54/61/47 58/66/52 57/65/51
f 54/61/47 55/63/49 59/67/53
f 54/61/47 59/67/53 58/66/52
f 55/63/49 56/64/50 59/67/53
f 56/64/50 60/68/54 59/67/53
f 57/65/51 58/66/52 30/69/29
f 57/65/51 30/69/29 29/70/29
f 58/66/52 59/67/53 30/69/29
f 59/67/53 31/71/29 30/69/29
f 59/67/53 60/68/54 32/72/29
f 59/67/53 32/72/29 31/71/29
s 2
f 61/73/55 63/74/55 75/75/55
f 62/73/56 76/75/56 64/74/56
f 63/74/55 65/76/55 75/75/55
f 64/74/56 76/75/56 66/76/56
f 75/75/55 65/76/55 73/77/55
f 76/75/56 74/77/56 66/76/56
f 65/76/55 67/78/55 73/77/55
f 66/76/56 74/77/56 68/78/56
f 73/77/55 67/78/55 71/79/55
f 74/77/56 72/79/56 68/78/56
f 67/78/55 69/80/55 71/79/55
f 68/78/56 72/79/56 70/80/56
s 1
f 63/81/57 64/82/58 66/83/59
f 63/81/57 66/83/59 65/84/60
f 67/85/61 68/86/62 70/87/63
f 67/85/61 70/87/63 69/88/64
f 71/84/65 72/83/66 74/82/67
f 71/84/65 74/82/67 73/81/68
f 75/88/69 76/87/70 62/86/71
f 75/88/69 62/86/71 61/85/72
f 77/89/73 78/90/74 79/91/75
f 78/90/74 80/92/76 79/91/75
f 81/93/77 82/94/78 83/95/79
f 82/94/78 84/96/80 83/95/79
f 85/95/81 86/96/82 87/93/83
f 86/96/82 88/94/84 87/93/83
f 89/91/85 90/92/86 91/89/87
f 90/92/86 92/90/88 91/89/87
f 72/97/66 84/96/80 70/98/63
f 70/98/63 84/96/80 82/94/78
f 82/94/78 69/99/64 70/98/63
f 69/99/64 82/94/78 81/93/77
f 81/93/77 71/100/65 69/99/64
f 81/93/77 83/95/79 71/100/65
f 71/100/65 83/95/79 72/97/66
f 72/97/66 83/95/79 84/96/80
f 66/97/59 88/94/84 86/96/82
f 66/97/59 68/98/62 88/94/84
f 88/94/84 67/99/61 87/93/83
f 87/93/83 65/100/60 85/95/81
f 85/95/81 66/97/59 86/96/82
f 66/97/59 85/95/81 65/100/60
f 65/100/60 87/93/83 67/99/61
f 67/99/61 88/94/84 68/98/62
f 74/101/67 76/102/70 92/90/88
f 92/90/88 75/103/69 91/89/87
f 91/89/87 73/104/68 89/91/85
f 89/91/85 74/101/67 90/92/86
f 90/92/86 74/101/67 92/90/88
f 92/90/88 76/102/70 75/103/69
f 75/103/69 73/104/68 91/89/87
f 89/91/85 73/104/68 74/101/67
f 80/92/76 78/90/74 62/102/71
f 80/92/76 64/101/58 79/91/75
f 79/91/75 63/104/57 77/89/73
f 77/89/73 61/103/72 78/90/74
f 61/103/72 62/102/71 78/90/74
f 61/103/72 77/89/73 63/104/57
f 63/104/57 79/91/75 64/101/58
f 64/101/58 80/92/76 62/102/71
# 160 triangles in group

# 160 triangles total

