# Wavefront OBJ exported by MilkShape 3D

mtllib key_silver.mtl

v 0.068421 0.407263 0.280941
v 0.068421 0.413503 0.211367
v 0.068421 0.665360 0.207544
v 0.068421 0.719829 0.153624
v 0.068421 0.802090 0.150752
v 0.068421 0.842416 0.188357
v 0.068421 0.976781 0.187999
v 0.068421 1.039607 0.125118
v 0.068421 1.121867 0.122246
v 0.068421 1.219384 0.183862
v 0.068421 1.301644 0.180989
v 0.068421 1.487304 0.035793
v 0.068421 1.492032 -0.077076
v 0.068421 1.436147 -0.187828
v 0.068421 0.408395 -0.199621
v 0.068421 0.401192 -0.281730
v 0.068421 -0.069584 -0.281992
v 0.068421 -0.435120 -0.636597
v 0.068421 -0.884433 -0.726664
v 0.068421 -1.335346 -0.481175
v 0.068421 -1.492046 -0.003213
v 0.068421 -1.314623 0.488264
v 0.068421 -0.865299 0.726665
v 0.068421 -0.407886 0.630817
v 0.068421 -0.068234 0.302518
v 0.068421 -1.330971 -0.009767
v 0.068421 -1.158746 0.179655
v 0.068421 -1.153723 -0.183725
v 0.068421 -0.973906 0.006269
v 0.068421 -1.027402 0.127441
v 0.068421 -1.272845 0.133609
v 0.068421 -1.267360 -0.131650
v 0.068421 -1.024797 -0.128575
v -0.068421 -1.492033 -0.003220
v -0.068421 -1.330958 -0.009797
v -0.068421 -1.267349 -0.131623
v -0.068421 -1.335327 -0.481172
v -0.068421 -1.314591 0.488275
v -0.068421 -1.272819 0.133574
v -0.068421 -0.865299 0.726671
v -0.068421 -1.158715 0.179644
v -0.068421 -1.027376 0.127421
v -0.068421 -0.407892 0.630815
v -0.068421 -0.973931 0.006244
v -0.068421 -1.153742 -0.183739
v -0.068421 -0.884464 -0.726671
v -0.068421 -1.024810 -0.128586
v -0.068421 -0.435149 -0.636608
v -0.068421 -0.068240 0.302502
v -0.068421 -0.069596 -0.281987
v -0.068421 0.407297 0.280912
v -0.068421 0.413516 0.211366
v -0.068421 0.408400 -0.199595
v -0.068421 0.401208 -0.281718
v -0.068421 0.665344 0.207555
v -0.068421 0.719818 0.153619
v -0.068421 0.802092 0.150746
v -0.068421 1.436145 -0.187848
v -0.068421 0.842393 0.188327
v -0.068421 0.976790 0.188031
v -0.068421 1.039598 0.125083
v -0.068421 1.121872 0.122210
v -0.068421 1.219371 0.183884
v -0.068421 1.301646 0.181011
v -0.068421 1.487340 0.035794
v -0.068421 1.492046 -0.077085
# 66 vertices

vt 0.103664 0.884738
vt 0.150417 0.840230
vt 0.201614 0.856424
vt 0.278613 0.975002
vt 0.018240 0.694442
vt 0.127278 0.782883
vt 0.078161 0.497573
vt 0.146470 0.736985
vt 0.197457 0.713967
vt 0.232115 0.393044
vt 0.245639 0.732904
vt 0.247624 0.838481
vt 0.471824 0.914743
vt 0.268459 0.785741
vt 0.572477 0.759882
vt 0.417030 0.388256
vt 0.577121 0.554200
vt 0.555653 0.257472
vt 0.576482 0.275380
vt 0.687883 0.393256
vt 0.708423 0.418587
vt 0.647800 0.203962
vt 0.677808 0.203557
vt 0.701555 0.180686
vt 0.971444 0.094056
vt 0.702483 0.158439
vt 0.740067 0.119831
vt 0.774875 0.119580
vt 0.798622 0.096708
vt 0.808897 0.051171
vt 0.832644 0.028299
vt 0.924329 0.015972
vt 0.956633 0.046590
vt 0.973642 0.950042
vt 0.940935 0.950044
vt 0.940935 0.939876
vt 0.973642 0.939874
vt 0.940935 0.975791
vt 0.973642 0.975789
vt 0.940935 0.947431
vt 0.973642 0.947426
vt 0.940935 0.875607
vt 0.973642 0.875607
vt 0.973642 0.922509
vt 0.940935 0.922514
vt 0.973642 0.901515
vt 0.940935 0.901519
vt 0.940935 0.802490
vt 0.973642 0.802491
vt 0.973642 0.892972
vt 0.940935 0.892968
vt 0.973642 0.878671
vt 0.940935 0.878666
vt 0.973642 0.806848
vt 0.940935 0.806844
vt 0.940935 0.748197
vt 0.973642 0.748198
vt 0.940935 0.672190
vt 0.973642 0.672184
vt 0.940935 0.630933
vt 0.973642 0.630936
vt 0.940935 0.622227
vt 0.973642 0.622228
vt 0.940935 0.609077
vt 0.973642 0.609077
vt 0.973642 0.507725
vt 0.940935 0.507724
vt 0.940935 0.602632
vt 0.973642 0.602635
vt 0.940935 0.581153
vt 0.973642 0.581151
vt 0.940935 0.571110
vt 0.973642 0.571112
vt 0.973642 0.557960
vt 0.940935 0.557961
vt 0.940935 0.542374
vt 0.973642 0.542375
vt 0.940935 0.529224
vt 0.973642 0.529224
vt 0.940935 0.499547
vt 0.973642 0.499541
# 81 texture coordinates

vn -1.000000 -0.000000 0.000000
vn 0.000114 0.979891 0.199533
vn 0.000155 0.994490 -0.104829
vn 0.000128 0.766500 0.642244
vn 0.000082 0.602095 0.798425
vn -0.000108 -0.845648 -0.533741
vn -0.000026 -0.677825 -0.735223
vn -0.000114 -0.995057 -0.099306
vn -0.000131 -0.991678 0.128740
vn -0.000119 -0.832718 0.553698
vn -0.000067 -0.665497 0.746401
vn 0.000272 0.798640 -0.601809
vn 0.000271 0.600605 -0.799546
vn 0.000015 -0.257725 0.966218
vn 0.000021 -0.020593 0.999788
vn 0.000168 0.134949 -0.990853
vn 0.000078 -0.129794 -0.991541
vn -0.000022 -0.590211 -0.807249
vn 0.000066 -0.784799 -0.619750
vn -0.000006 0.381663 0.924301
vn -0.000060 0.550850 0.834604
vn 0.000081 -0.986769 -0.162132
vn 0.000145 -0.994166 0.107863
vn 0.000009 0.158794 0.987312
vn -0.000082 -0.133316 0.991074
vn 0.000025 -0.267497 -0.963559
vn 0.000070 -0.029951 -0.999551
vn -0.000005 -0.617810 0.786328
vn 0.000047 -0.812361 0.583155
vn -0.000014 0.376713 -0.926330
vn -0.000047 0.549532 -0.835472
vn -0.000097 0.507491 0.861657
vn -0.000154 0.277798 0.960640
vn -0.000077 0.496524 -0.868023
vn -0.000076 0.248562 -0.968616
vn -0.000038 0.461789 0.886990
vn 0.000056 0.865825 0.500346
vn 0.000139 0.862389 0.506246
vn 0.000074 0.440985 0.897514
vn -0.000027 0.862714 -0.505692
vn -0.000009 0.438740 -0.898614
vn 0.000017 0.861497 -0.507762
vn -0.000008 0.431128 -0.902291
vn 0.000016 0.261328 0.965250
vn -0.000056 0.511776 0.859119
vn -0.000061 0.274484 0.961592
vn -0.000045 -0.218804 0.975769
vn -0.000045 -0.475029 0.879970
vn 0.000003 0.350029 -0.936739
vn 0.000123 0.686952 -0.726703
vn -0.000106 -0.483787 0.875186
vn -0.000008 -0.240629 0.970617
vn 0.000083 0.254482 0.967078
vn -0.000099 0.515204 0.857068
vn -0.000267 0.276301 0.961071
vn -0.000110 -0.358758 0.933431
vn -0.000264 -0.161134 0.986933
vn 0.000155 0.238996 0.971021
vn 0.000206 0.809663 0.586894
vn 0.000195 0.948704 0.316166
vn 0.000170 0.992039 -0.125928
vn 0.000096 0.955530 -0.294895
vn 1.000000 0.000000 -0.000000
# 63 normals

g Key_Silver
usemtl Key_Silver
s 1
f 34/1/1 35/2/1 36/3/1
f 36/3/1 37/4/1 34/1/1
f 34/1/1 38/5/1 35/2/1
f 39/6/1 35/2/1 38/5/1
f 38/5/1 40/7/1 39/6/1
f 39/6/1 40/7/1 41/8/1
f 41/8/1 40/7/1 42/9/1
f 42/9/1 40/7/1 43/10/1
f 43/10/1 44/11/1 42/9/1
f 37/4/1 36/3/1 45/12/1
f 45/12/1 46/13/1 37/4/1
f 45/12/1 47/14/1 46/13/1
f 46/13/1 47/14/1 48/15/1
f 48/15/1 47/14/1 44/11/1
f 44/11/1 43/10/1 48/15/1
f 43/10/1 49/16/1 48/15/1
f 48/15/1 49/16/1 50/17/1
f 50/17/1 49/16/1 51/18/1
f 51/18/1 52/19/1 50/17/1
f 50/17/1 52/19/1 53/20/1
f 53/20/1 54/21/1 50/17/1
f 52/19/1 55/22/1 53/20/1
f 53/20/1 55/22/1 56/23/1
f 56/23/1 57/24/1 53/20/1
f 53/20/1 57/24/1 58/25/1
f 58/25/1 57/24/1 59/26/1
f 59/26/1 60/27/1 61/28/1
f 62/29/1 63/30/1 64/31/1
f 64/31/1 65/32/1 62/29/1
f 62/29/1 65/32/1 66/33/1
f 66/33/1 58/25/1 62/29/1
f 62/29/1 58/25/1 61/28/1
f 61/28/1 58/25/1 59/26/1
s 2
f 35/34/2 26/35/3 32/36/4
f 35/34/2 32/36/4 36/37/5
f 37/34/6 20/35/7 21/38/8
f 37/34/6 21/38/8 34/39/9
f 34/39/9 21/38/8 22/40/10
f 34/39/9 22/40/10 38/41/11
f 39/37/12 31/36/13 26/35/3
f 39/37/12 26/35/3 35/34/2
f 38/41/11 22/40/10 23/42/14
f 38/41/11 23/42/14 40/43/15
f 41/44/16 27/45/17 31/36/13
f 41/44/16 31/36/13 39/37/12
f 42/46/18 30/47/19 27/45/17
f 42/46/18 27/45/17 41/44/16
f 40/43/15 23/42/14 24/48/20
f 40/43/15 24/48/20 43/49/21
f 44/50/22 29/51/23 30/47/19
f 44/50/22 30/47/19 42/46/18
f 36/37/5 32/36/4 28/45/24
f 36/37/5 28/45/24 45/44/25
f 46/52/26 19/53/27 20/35/7
f 46/52/26 20/35/7 37/34/6
f 45/44/25 28/45/24 33/47/28
f 45/44/25 33/47/28 47/46/29
f 48/54/30 18/55/31 19/53/27
f 48/54/30 19/53/27 46/52/26
f 47/46/29 33/47/28 29/51/23
f 47/46/29 29/51/23 44/50/22
f 43/49/21 24/48/20 25/56/32
f 43/49/21 25/56/32 49/57/33
f 50/57/34 17/56/35 18/55/31
f 50/57/34 18/55/31 48/54/30
f 49/57/33 25/56/32 1/58/36
f 49/57/33 1/58/36 51/59/37
f 51/59/37 1/58/36 2/58/38
f 51/59/37 2/58/38 52/59/39
f 53/59/40 15/58/41 16/58/42
f 53/59/40 16/58/42 54/59/43
f 54/59/43 16/58/42 17/56/35
f 54/59/43 17/56/35 50/57/34
f 52/59/39 2/58/38 3/60/44
f 52/59/39 3/60/44 55/61/32
f 55/61/32 3/60/44 4/62/45
f 55/61/32 4/62/45 56/63/46
f 56/63/46 4/62/45 5/64/47
f 56/63/46 5/64/47 57/65/48
f 58/66/49 14/67/50 15/58/41
f 58/66/49 15/58/41 53/59/40
f 57/65/48 5/64/47 6/68/51
f 57/65/48 6/68/51 59/69/52
f 59/69/52 6/68/51 7/70/53
f 59/69/52 7/70/53 60/71/32
f 60/71/32 7/70/53 8/72/54
f 60/71/32 8/72/54 61/73/55
f 62/74/56 9/75/57 10/76/56
f 62/74/56 10/76/56 63/77/57
f 63/77/57 10/76/56 11/78/58
f 63/77/57 11/78/58 64/79/39
f 64/79/39 11/78/58 12/80/59
f 64/79/39 12/80/59 65/81/60
f 65/81/60 12/80/59 13/80/61
f 65/81/60 13/80/61 66/81/62
f 66/81/62 13/80/61 14/67/50
f 66/81/62 14/67/50 58/66/49
f 61/73/55 8/72/54 9/75/57
f 61/73/55 9/75/57 62/74/56
s 1
f 32/3/63 26/2/63 21/1/63
f 21/1/63 26/2/63 31/6/63
f 31/6/63 22/5/63 21/1/63
f 32/3/63 21/1/63 20/4/63
f 20/4/63 28/12/63 32/3/63
f 28/12/63 20/4/63 19/13/63
f 19/13/63 33/14/63 28/12/63
f 31/6/63 27/8/63 22/5/63
f 22/5/63 27/8/63 23/7/63
f 23/7/63 27/8/63 30/9/63
f 30/9/63 24/10/63 23/7/63
f 19/13/63 18/15/63 33/14/63
f 33/14/63 18/15/63 29/11/63
f 29/11/63 18/15/63 24/10/63
f 24/10/63 30/9/63 29/11/63
f 25/16/63 24/10/63 18/15/63
f 18/15/63 17/17/63 25/16/63
f 1/18/63 25/16/63 17/17/63
f 17/17/63 16/21/63 15/20/63
f 15/20/63 2/19/63 17/17/63
f 17/17/63 2/19/63 1/18/63
f 5/24/63 7/27/63 6/26/63
f 5/24/63 8/28/63 7/27/63
f 9/29/63 12/32/63 11/31/63
f 11/31/63 10/30/63 9/29/63
f 3/22/63 2/19/63 15/20/63
f 15/20/63 4/23/63 3/22/63
f 4/23/63 15/20/63 5/24/63
f 5/24/63 15/20/63 14/25/63
f 5/24/63 14/25/63 8/28/63
f 8/28/63 14/25/63 9/29/63
f 9/29/63 14/25/63 13/33/63
f 13/33/63 12/32/63 9/29/63
# 132 triangles in group

# 132 triangles total

