# Wavefront OBJ exported by MilkShape 3D

mtllib key_rusty.mtl

v -0.125000 -1.160548 -0.144737
v -0.125000 -1.160548 0.118421
v -0.125000 2.431557 -0.105263
v -0.125000 2.431557 0.118422
v -0.125000 2.181557 0.131579
v -0.125000 1.892084 0.144737
v -0.125000 1.602610 0.144737
v -0.125000 1.339452 0.144737
v -0.125000 2.168399 0.500000
v -0.125000 1.892084 0.473685
v -0.125000 1.615768 0.460527
v -0.125000 1.352610 0.447369
v -0.125000 -1.476337 -0.144737
v -0.125000 -1.489495 0.105263
v -0.125000 -2.068443 -0.152561
v -0.125000 -2.068443 0.105263
v -0.125000 -1.765811 -0.381579
v -0.125000 -1.784659 0.393670
v -0.125000 -1.357205 -0.566501
v -0.125000 -1.792127 -0.736842
v -0.125000 -2.213180 -0.539474
v -0.125000 -2.431530 -0.178876
v -0.125000 -2.431530 0.131579
v -0.125000 -1.798172 0.736842
v -0.125000 -2.200022 0.521337
v -0.125000 -1.358272 0.520626
v 0.125000 -1.160561 -0.144718
v 0.125000 -1.476357 -0.144718
v 0.125000 -1.489480 0.105282
v 0.125000 -1.160561 0.118404
v 0.125000 -1.357216 -0.566471
v 0.125000 -1.765786 -0.381596
v 0.125000 -1.792153 -0.736820
v 0.125000 -2.213173 -0.539494
v 0.125000 -2.068459 -0.152531
v 0.125000 -2.431557 -0.178898
v 0.125000 -2.431557 0.131588
v 0.125000 -2.068459 0.105281
v 0.125000 -2.200051 0.521358
v 0.125000 -1.784646 0.393673
v 0.125000 -1.798195 0.736812
v 0.125000 -1.358254 0.520626
v 0.125000 2.431541 -0.105289
v 0.125000 1.339439 0.144711
v 0.125000 1.602623 0.144711
v 0.125000 1.892112 0.144711
v 0.125000 2.181541 0.131588
v 0.125000 2.431541 0.118405
v 0.125000 1.352623 0.447384
v 0.125000 1.615745 0.460507
v 0.125000 1.892112 0.473690
v 0.125000 2.168418 0.499996
# 52 vertices

vt 0.380612 0.238403
vt 0.293080 0.240691
vt 0.293080 0.295757
vt 0.385207 0.295757
vt 0.145411 0.261466
vt 0.210142 0.190223
vt 0.085766 0.185626
vt 0.154857 0.112212
vt 0.290344 0.137446
vt 0.281112 0.074132
vt 0.389823 0.074132
vt 0.380612 0.137446
vt 0.526293 0.114500
vt 0.481587 0.186935
vt 0.601731 0.184572
vt 0.526037 0.261285
vt 0.394418 0.731685
vt 0.306885 0.922116
vt 0.394418 0.777577
vt 0.394418 0.828055
vt 0.389823 0.878523
vt 0.385207 0.922116
vt 0.500393 0.733984
vt 0.504987 0.779865
vt 0.518814 0.876235
vt 0.509604 0.828055
vt 0.839550 0.221237
vt 0.839550 0.223688
vt 0.941858 0.223684
vt 0.941858 0.221240
vt 0.839550 0.245880
vt 0.839550 0.282514
vt 0.941858 0.282511
vt 0.941858 0.245879
vt 0.839550 0.169765
vt 0.941858 0.169769
vt 0.839550 0.164863
vt 0.941858 0.164858
vt 0.839550 0.086428
vt 0.941858 0.086429
vt 0.839550 0.113390
vt 0.941858 0.113387
vt 0.839550 0.045754
vt 0.941858 0.045749
vt 0.839550 0.088879
vt 0.941858 0.088874
vt 0.839550 0.166254
vt 0.941858 0.166256
vt 0.839550 0.163737
vt 0.941858 0.163732
vt 0.839550 0.951655
vt 0.941858 0.951652
vt 0.839550 0.748217
vt 0.941858 0.748214
vt 0.839550 0.851162
vt 0.839550 0.797238
vt 0.941858 0.797240
vt 0.941858 0.851167
vt 0.839550 0.905085
vt 0.941858 0.905082
vt 0.839550 0.750668
vt 0.941858 0.750670
vt 0.839550 0.799690
vt 0.941858 0.799685
vt 0.839550 0.902634
vt 0.941858 0.902638
# 66 texture coordinates

vn 0.817506 -0.489732 -0.303061
vn 0.741521 -0.650239 0.165337
vn 0.887644 0.323728 -0.327548
vn 0.756520 0.220988 0.615502
vn 0.729879 0.397909 -0.555828
vn 0.853974 -0.141572 0.500686
vn 0.583395 -0.141213 -0.799818
vn 0.720658 -0.512943 -0.466414
vn 0.826654 0.456088 0.329586
vn 0.567401 -0.810216 -0.146991
vn 0.718346 -0.651271 0.244591
vn 0.730843 0.660813 -0.170865
vn 0.718646 -0.432394 0.544595
vn 0.872581 0.158519 -0.462033
vn 0.594205 0.121687 0.795055
vn 0.724060 0.539647 0.429556
vn 0.868424 -0.436074 0.235966
vn 0.912204 0.186447 -0.364857
vn 0.876352 0.218890 0.429063
vn 0.872889 -0.436408 0.218204
vn 0.791887 0.291559 0.536571
vn 0.401333 0.823635 0.400696
vn 0.653274 -0.358897 0.666653
vn 0.421306 0.820810 0.385711
vn 0.675621 0.643171 0.360370
vn 0.395972 -0.470983 0.788278
vn -0.817482 -0.551019 -0.167633
vn -0.741551 -0.559911 0.369596
vn -0.729808 0.529728 -0.432167
vn -0.887633 0.164797 -0.430057
vn -0.853963 0.122476 0.505714
vn -0.583326 0.088953 -0.807353
vn -0.720690 -0.409398 -0.559464
vn -0.826650 0.538044 0.164797
vn -0.567521 -0.769105 -0.293934
vn -0.718428 -0.684769 0.122283
vn -0.730800 0.590887 -0.341737
vn -0.718713 -0.525109 0.455755
vn -0.872574 -0.149416 -0.465070
vn -0.594164 -0.149741 0.790283
vn -0.724052 0.429505 0.539698
vn -0.756481 0.449955 0.474634
vn -0.912202 0.366887 -0.182430
vn -0.868414 -0.221475 0.443627
vn -0.872855 -0.218232 0.436463
vn -0.876341 0.437807 0.200876
vn -0.401237 0.443501 0.801446
vn -0.791881 0.541451 0.282409
vn -0.653269 -0.668943 0.354619
vn -0.421250 0.378906 0.824002
vn -0.675626 0.273544 0.684619
vn -0.395855 -0.829421 0.394158
# 52 normals

g Key_Rusty
usemtl Key_Rusty
s 1
f 29/1/1 28/2/2 27/3/3
f 27/3/3 30/4/4 29/1/1
f 28/2/2 31/5/5 27/3/3
f 32/6/6 31/5/5 28/2/2
f 33/7/7 31/5/5 32/6/6
f 32/6/6 34/8/8 33/7/7
f 35/9/9 34/8/8 32/6/6
f 36/10/10 34/8/8 35/9/9
f 35/9/9 37/11/11 36/10/10
f 37/11/11 35/9/9 38/12/12
f 38/12/12 39/13/13 37/11/11
f 40/14/14 39/13/13 38/12/12
f 41/15/15 39/13/13 40/14/14
f 40/14/14 42/16/16 41/15/15
f 29/1/1 42/16/16 40/14/14
f 42/16/16 29/1/1 30/4/4
f 44/17/17 27/3/3 43/18/18
f 30/4/4 27/3/3 44/17/17
f 43/18/18 45/19/19 44/17/17
f 46/20/20 45/19/19 43/18/18
f 43/18/18 47/21/21 46/20/20
f 48/22/22 47/21/21 43/18/18
f 45/19/19 49/23/23 44/17/17
f 50/24/24 49/23/23 45/19/19
f 46/20/20 52/25/25 51/26/26
f 47/21/21 52/25/25 46/20/20
f 14/27/27 13/28/28 28/29/2
f 29/30/1 14/27/27 28/29/2
f 19/31/29 1/32/30 27/33/3
f 31/34/5 19/31/29 27/33/3
f 13/28/28 17/35/31 32/36/6
f 28/29/2 13/28/28 32/36/6
f 20/37/32 19/31/29 31/34/5
f 33/38/7 20/37/32 31/34/5
f 21/39/33 20/37/32 33/38/7
f 34/40/8 21/39/33 33/38/7
f 17/35/31 15/41/34 35/42/9
f 32/36/6 17/35/31 35/42/9
f 22/43/35 21/39/33 34/40/8
f 36/44/10 22/43/35 34/40/8
f 23/43/36 22/43/35 36/44/10
f 37/44/11 23/43/36 36/44/10
f 15/41/34 16/41/37 38/42/12
f 35/42/9 15/41/34 38/42/12
f 25/45/38 23/43/36 37/44/11
f 39/46/13 25/45/38 37/44/11
f 16/41/37 18/47/39 40/48/14
f 38/42/12 16/41/37 40/48/14
f 24/49/40 25/45/38 39/46/13
f 41/50/15 24/49/40 39/46/13
f 26/31/41 24/49/40 41/50/15
f 42/34/16 26/31/41 41/50/15
f 18/47/39 14/27/27 29/30/1
f 40/48/14 18/47/39 29/30/1
f 2/32/42 26/31/41 42/34/16
f 30/33/4 2/32/42 42/34/16
f 1/32/30 3/51/43 43/52/18
f 27/33/3 1/32/30 43/52/18
f 8/53/44 2/32/42 30/33/4
f 44/54/17 8/53/44 30/33/4
f 6/55/45 7/56/46 45/57/19
f 46/58/20 6/55/45 45/57/19
f 4/51/47 5/59/48 47/60/21
f 48/52/22 4/51/47 47/60/21
f 3/51/43 4/51/47 48/52/22
f 43/52/18 3/51/43 48/52/22
f 12/61/49 8/53/44 44/54/17
f 49/62/23 12/61/49 44/54/17
f 11/63/50 12/61/49 49/62/23
f 50/64/24 11/63/50 49/62/23
f 7/56/46 11/63/50 50/64/24
f 45/57/19 7/56/46 50/64/24
f 9/65/51 10/55/52 51/58/26
f 52/66/25 9/65/51 51/58/26
f 10/55/52 6/55/45 46/58/20
f 51/58/26 10/55/52 46/58/20
f 5/59/48 9/65/51 52/66/25
f 47/60/21 5/59/48 52/66/25
f 13/2/28 19/5/29 17/6/31
f 17/6/31 19/5/29 20/7/32
f 20/7/32 21/8/33 17/6/31
f 17/6/31 21/8/33 15/9/34
f 15/9/34 21/8/33 22/10/35
f 22/10/35 23/11/36 15/9/34
f 15/9/34 23/11/36 16/12/37
f 16/12/37 23/11/36 25/13/38
f 25/13/38 18/14/39 16/12/37
f 18/14/39 25/13/38 24/15/40
f 24/15/40 26/16/41 18/14/39
f 18/14/39 26/16/41 14/1/27
f 14/1/27 26/16/41 2/4/42
f 2/4/42 1/3/30 14/1/27
f 14/1/27 1/3/30 13/2/28
f 13/2/28 1/3/30 19/5/29
f 1/3/30 2/4/42 8/17/44
f 8/17/44 12/23/49 7/19/46
f 7/19/46 12/23/49 11/24/50
f 6/20/45 10/26/52 9/25/51
f 6/20/45 9/25/51 5/21/48
f 5/21/48 4/22/47 3/18/43
f 3/18/43 6/20/45 5/21/48
f 6/20/45 3/18/43 7/19/46
f 7/19/46 3/18/43 8/17/44
f 8/17/44 3/18/43 1/3/30
# 104 triangles in group

# 104 triangles total

